<svg xmlns="http://www.w3.org/2000/svg" width="200" height="150" viewBox="0 0 200 150">
  <title>graphql-api-koa logo</title>
  <path fill="#33333D" d="M36.707 30.08v52.733l23.297-26.261h1.058l-17.26 19.484 22.766 33.462h-7.412l-19.59-28.801-2.859 3.282v25.518l-7.412.001V30.08h7.412zm138.716 79.417c-4.801 0-8.083-.917-9.848-2.752-1.623-1.554-2.435-2.894-2.435-4.024v-2.224c-3.46 6.283-9 9.423-16.625 9.423-8.895 0-13.941-4.022-15.142-12.071a15.78 15.78 0 0 1-.211-2.593c0-.883.14-1.853.423-2.912.283-1.058 1.094-2.223 2.435-3.495 2.683-2.54 8.577-4.093 17.684-4.658a67.273 67.273 0 0 1 6.247-.318c1.905 0 3.637.071 5.19.212v-17.58c-.143-.07-.143-.405 0-1.005.14-.601.017-1.376-.372-2.33-.388-.954-.9-1.889-1.534-2.806-.636-.918-1.766-1.712-3.39-2.383-1.623-.67-3.74-1.006-6.353-1.006-2.612 0-5.665.476-9.16 1.43-3.493.954-6.053 1.889-7.677 2.806l-.424-.74c6.284-2.894 12.673-4.342 19.167-4.342 7.27 0 12.071 1.306 14.4 3.918 1.836 2.048 2.753 4.2 2.753 6.459v35.472c0 2.048.406 3.619 1.218 4.712.812 1.095 1.642 1.678 2.488 1.747l1.166.214h3.282v.845h-3.282v.001zm-27.214-.423c3.741 0 7.112-1.288 10.112-3.865 3-2.578 4.607-5.065 4.818-7.465V84.93a77.486 77.486 0 0 0-5.77-.212c-1.942 0-3.866.106-5.771.318-5.366.634-8.86 1.834-10.483 3.599-1.624 1.764-2.436 4.2-2.436 7.306 0 .565.035 1.2.106 1.905.635 7.484 3.776 11.226 9.423 11.226v.001z" />
  <path fill="none" stroke="#e10098" stroke-width="2.577" d="M119.87 70.474L97.208 57.71 74.546 70.474v25.53l22.662 12.763 22.662-12.763H74.546l22.662-38.295 22.662 38.295z" />
  <g fill="#e10098">
    <circle cx="97.208" cy="57.709" r="5.638" />
    <circle cx="74.546" cy="96.004" r="5.638" />
    <circle cx="119.87" cy="96.004" r="5.638" />
    <circle cx="97.208" cy="108.768" r="5.638" />
    <circle cx="74.546" cy="70.313" r="5.638" />
    <circle cx="119.87" cy="70.474" r="5.638" />
  </g>
</svg>
